<svg width="742" height="41" viewBox="0 0 742 41" fill="none" xmlns="http://www.w3.org/2000/svg">
<path d="M703.664 38.6797C704.659 38.4795 705.322 37.5949 705.53 37.1777H656.084C656.292 37.5949 656.955 38.4795 657.95 38.6797C658.054 39.2639 658.51 40.4321 659.505 40.4321H702.109C703.104 40.4321 703.56 39.2639 703.664 38.6797Z" fill="url(#paint0_linear_0_1)"/>
<path fill-rule="evenodd" clip-rule="evenodd" d="M703.618 38.8844V38.8049H657.976C658.117 39.4156 658.577 40.4321 659.505 40.4321H702.109C702.998 40.4321 703.457 39.4997 703.618 38.8844Z" fill="black" fill-opacity="0.3"/>
<path d="M83.7033 38.6797C84.6984 38.4795 85.3618 37.5949 85.5691 37.1777H36.1237C36.331 37.5949 36.9944 38.4795 37.9896 38.6797C38.0932 39.2639 38.5493 40.4321 39.5444 40.4321H82.1484C83.1435 40.4321 83.5996 39.2639 83.7033 38.6797Z" fill="url(#paint1_linear_0_1)"/>
<path fill-rule="evenodd" clip-rule="evenodd" d="M83.6575 38.8852V38.8049H38.0152C38.1568 39.4156 38.6161 40.4321 39.5443 40.4321H82.1483C83.0369 40.4321 83.4957 39.5005 83.6575 38.8852Z" fill="black" fill-opacity="0.3"/>
<mask id="mask0_0_1" style="mask-type:alpha" maskUnits="userSpaceOnUse" x="0" y="18" width="742" height="20">
<path d="M742 20.9029V18.9533H0V20.9029C0 26.5997 0 29.4481 1.59618 31.624C3.00022 33.5379 5.24057 35.094 7.99618 36.0692C11.1288 37.1779 15.2298 37.1779 23.4316 37.1779H718.568C726.77 37.1779 730.871 37.1779 734.004 36.0692C736.759 35.094 739 33.5379 740.404 31.624C742 29.4481 742 26.5997 742 20.9029Z" fill="white"/>
</mask>
<g mask="url(#mask0_0_1)">
<path d="M742 20.9029V18.9533H0V20.9029C0 26.5997 0 29.4481 1.59618 31.624C3.00022 33.5379 5.24057 35.094 7.99618 36.0692C11.1288 37.1779 15.2298 37.1779 23.4316 37.1779H718.568C726.77 37.1779 730.871 37.1779 734.004 36.0692C736.759 35.094 739 33.5379 740.404 31.624C742 29.4481 742 26.5997 742 20.9029Z" fill="url(#paint2_linear_0_1)"/>
<rect x="658.688" y="18.953" width="83.3123" height="18.2246" fill="url(#paint3_linear_0_1)"/>
<rect width="83.9632" height="18.2246" transform="matrix(-1 0 0 1 83.9631 18.953)" fill="url(#paint4_linear_0_1)"/>
<g filter="url(#filter0_f_0_1)">
<path d="M1.6272 15.6988H11.0649V25.2992C11.0649 27.9054 8.95221 30.0181 6.34606 30.0181C3.7399 30.0181 1.6272 27.9054 1.6272 25.2992V15.6988Z" fill="url(#paint5_linear_0_1)"/>
</g>
<g filter="url(#filter1_f_0_1)">
<path d="M740.373 15.6988H730.935V25.2992C730.935 27.9054 733.048 30.0181 735.654 30.0181C738.26 30.0181 740.373 27.9054 740.373 25.2992V15.6988Z" fill="url(#paint6_linear_0_1)"/>
</g>
</g>
<path d="M304.285 18.953H437.715C437.715 23.9856 433.635 28.0653 428.603 28.0653H313.397C308.365 28.0653 304.285 23.9856 304.285 18.953Z" fill="url(#paint7_linear_0_1)"/>
<g filter="url(#filter2_ii_0_1)">
<path d="M667.475 18.9511C673.217 18.9511 677.873 13.7467 677.889 7.31997V0.726562H64.7627V7.2874C64.7627 13.7291 69.4252 18.9511 75.1767 18.9511H667.475Z" fill="url(#paint8_linear_0_1)"/>
</g>
<defs>
<filter id="filter0_f_0_1" x="-4.3728" y="9.69879" width="21.4377" height="26.3193" filterUnits="userSpaceOnUse" color-interpolation-filters="sRGB">
<feFlood flood-opacity="0" result="BackgroundImageFix"/>
<feBlend mode="normal" in="SourceGraphic" in2="BackgroundImageFix" result="shape"/>
<feGaussianBlur stdDeviation="3" result="effect1_foregroundBlur_0_1"/>
</filter>
<filter id="filter1_f_0_1" x="724.935" y="9.69879" width="21.4377" height="26.3193" filterUnits="userSpaceOnUse" color-interpolation-filters="sRGB">
<feFlood flood-opacity="0" result="BackgroundImageFix"/>
<feBlend mode="normal" in="SourceGraphic" in2="BackgroundImageFix" result="shape"/>
<feGaussianBlur stdDeviation="3" result="effect1_foregroundBlur_0_1"/>
</filter>
<filter id="filter2_ii_0_1" x="63.7627" y="-0.273438" width="615.126" height="19.2246" filterUnits="userSpaceOnUse" color-interpolation-filters="sRGB">
<feFlood flood-opacity="0" result="BackgroundImageFix"/>
<feBlend mode="normal" in="SourceGraphic" in2="BackgroundImageFix" result="shape"/>
<feColorMatrix in="SourceAlpha" type="matrix" values="0 0 0 0 0 0 0 0 0 0 0 0 0 0 0 0 0 0 127 0" result="hardAlpha"/>
<feOffset dx="-1" dy="-1"/>
<feGaussianBlur stdDeviation="1"/>
<feComposite in2="hardAlpha" operator="arithmetic" k2="-1" k3="1"/>
<feColorMatrix type="matrix" values="0 0 0 0 0 0 0 0 0 0 0 0 0 0 0 0 0 0 0.5 0"/>
<feBlend mode="normal" in2="shape" result="effect1_innerShadow_0_1"/>
<feColorMatrix in="SourceAlpha" type="matrix" values="0 0 0 0 0 0 0 0 0 0 0 0 0 0 0 0 0 0 127 0" result="hardAlpha"/>
<feOffset dx="1" dy="-1"/>
<feGaussianBlur stdDeviation="1"/>
<feComposite in2="hardAlpha" operator="arithmetic" k2="-1" k3="1"/>
<feColorMatrix type="matrix" values="0 0 0 0 0 0 0 0 0 0 0 0 0 0 0 0 0 0 0.5 0"/>
<feBlend mode="normal" in2="effect1_innerShadow_0_1" result="effect2_innerShadow_0_1"/>
</filter>
<linearGradient id="paint0_linear_0_1" x1="656.084" y1="38.8049" x2="705.53" y2="38.8049" gradientUnits="userSpaceOnUse">
<stop stop-color="#565F6D"/>
<stop offset="0.173014" stop-color="#2E353F"/>
<stop offset="0.31824" stop-color="#56606D"/>
<stop offset="0.691458" stop-color="#56606D"/>
<stop offset="0.825754" stop-color="#2E353F"/>
<stop offset="1" stop-color="#565F6D"/>
</linearGradient>
<linearGradient id="paint1_linear_0_1" x1="36.1237" y1="38.8049" x2="85.5691" y2="38.8049" gradientUnits="userSpaceOnUse">
<stop stop-color="#565F6D"/>
<stop offset="0.173014" stop-color="#2E353F"/>
<stop offset="0.31824" stop-color="#56606D"/>
<stop offset="0.691458" stop-color="#56606D"/>
<stop offset="0.825754" stop-color="#2E353F"/>
<stop offset="1" stop-color="#565F6D"/>
</linearGradient>
<linearGradient id="paint2_linear_0_1" x1="371" y1="18.9533" x2="371" y2="37.1779" gradientUnits="userSpaceOnUse">
<stop stop-color="#586170"/>
<stop offset="0.192522" stop-color="#56606C"/>
<stop offset="0.376094" stop-color="#4F5965"/>
<stop offset="0.598958" stop-color="#343C45"/>
<stop offset="0.713542" stop-color="#1B222C"/>
<stop offset="0.852125" stop-color="#161D27"/>
<stop offset="0.931356" stop-color="#444C57"/>
</linearGradient>
<linearGradient id="paint3_linear_0_1" x1="742" y1="28.3414" x2="658.688" y2="28.3414" gradientUnits="userSpaceOnUse">
<stop stop-color="#212733" stop-opacity="0"/>
<stop offset="0.259918" stop-color="#212733"/>
<stop offset="1" stop-color="#212733" stop-opacity="0"/>
</linearGradient>
<linearGradient id="paint4_linear_0_1" x1="83.9632" y1="9.38841" x2="2.87388e-08" y2="9.38841" gradientUnits="userSpaceOnUse">
<stop stop-color="#212733" stop-opacity="0"/>
<stop offset="0.259918" stop-color="#212733"/>
<stop offset="1" stop-color="#212733" stop-opacity="0"/>
</linearGradient>
<linearGradient id="paint5_linear_0_1" x1="1.6272" y1="20.6083" x2="11.0649" y2="20.6083" gradientUnits="userSpaceOnUse">
<stop offset="0.0875682" stop-color="white" stop-opacity="0.17"/>
<stop offset="0.272185" stop-color="white" stop-opacity="0.65"/>
<stop offset="0.489769" stop-color="white" stop-opacity="0.65"/>
<stop offset="0.677083" stop-color="white" stop-opacity="0.19"/>
<stop offset="1" stop-color="white" stop-opacity="0"/>
</linearGradient>
<linearGradient id="paint6_linear_0_1" x1="740.373" y1="20.6083" x2="730.935" y2="20.6083" gradientUnits="userSpaceOnUse">
<stop offset="0.0875682" stop-color="white" stop-opacity="0.17"/>
<stop offset="0.272185" stop-color="white" stop-opacity="0.65"/>
<stop offset="0.489769" stop-color="white" stop-opacity="0.65"/>
<stop offset="0.677083" stop-color="white" stop-opacity="0.19"/>
<stop offset="1" stop-color="white" stop-opacity="0"/>
</linearGradient>
<linearGradient id="paint7_linear_0_1" x1="304.601" y1="23.3711" x2="437.715" y2="23.3711" gradientUnits="userSpaceOnUse">
<stop stop-color="#131A24"/>
<stop offset="0.015659" stop-color="#343E4A"/>
<stop offset="0.035819" stop-color="#626E7E"/>
<stop offset="0.0504351" stop-color="#7F8A9C"/>
<stop offset="0.479167" stop-color="#7E889B"/>
<stop offset="0.941214" stop-color="#7F8A9C"/>
<stop offset="0.970403" stop-color="#626E7E"/>
<stop offset="0.980129" stop-color="#343E4A"/>
<stop offset="1" stop-color="#131A24"/>
</linearGradient>
<linearGradient id="paint8_linear_0_1" x1="371.326" y1="0.726562" x2="371.326" y2="18.9511" gradientUnits="userSpaceOnUse">
<stop stop-color="#252525"/>
<stop offset="1" stop-color="#101010"/>
</linearGradient>
</defs>
</svg>
